<?xml version="1.0" encoding="UTF-8" standalone="no"?>
<svg
   version="1.1"
   id="svg1"
   width="1000"
   height="1000"
   viewBox="0 0 1000 1000"
   xmlns:inkscape="http://www.inkscape.org/namespaces/inkscape"
   xmlns:sodipodi="http://sodipodi.sourceforge.net/DTD/sodipodi-0.dtd"
   xmlns:xlink="http://www.w3.org/1999/xlink"
   xmlns="http://www.w3.org/2000/svg"
   xmlns:svg="http://www.w3.org/2000/svg"
   xmlns:rdf="http://www.w3.org/1999/02/22-rdf-syntax-ns#"
   xmlns:cc="http://creativecommons.org/ns#">
  <defs
     id="defs1">
    <color-profile
       name="sRGB"
       xlink:href="file:///app/share/color/icc/colord/sRGB.icc"
       id="color-profile2" />
  </defs>
  <g
     id="logo"
     transform="matrix(0.30305737,0,0,0.30305737,18.534786,-165.1584)">
    <g
       id="g"
       style="fill:#ffffff;stroke:none">
      <path
         id="p8"
         d="M 1544.4451,236.78439 C 2279.8506,72.7859 3036.6766,405.1648 3413.447,1057.7261 c 376.7704,652.5614 286.2322,1474.1844 -223.8362,2028.7352 70.0849,27.0961 138.3379,59.5657 203.6381,96.7634 572.9219,-694.514 1520.325,-954.4969 2367.7321,-649.9143 847.4071,304.5825 1412.5192,1108.2067 1412.5192,2008.6896 0,900.4828 -565.1121,1704.1071 -1412.5192,2008.6896 -847.4071,304.5826 -1794.8102,44.5997 -2367.7973,-649.8773 -65.3689,37.2284 -133.6249,69.6914 -203.5868,97.3145 510.1204,555.1109 600.5952,1376.7018 223.8087,2029.2187 -376.7863,652.5168 -1133.5848,984.862 -1868.9492,820.9441 11.4643,74.7993 17.4688,150.1431 17.6857,225.1825 887.7064,148.8253 1586.5376,839.3313 1746.4368,1725.5039 159.8989,886.172 -253.5326,1777.373 -1033.388,2227.589 -779.8554,450.217 -1758.3676,362.596 -2445.8287,-219.011 -687.4613,-581.607 -935.9806,-1532.081 -620.79597,-2375.42 -64.66419,-37.862 -126.86542,-80.713 -185.46275,-128.314 -225.36418,718.488 -891.61408,1207.68 -1645.10348,1207.68 -753.4894,0 -1419.7393,-489.192 -1645.6035,-1207.68 -59.0973,47.601 -121.2985,90.452 -185.927,128.41 315.1396,843.465 66.529,1793.916 -620.9878,2375.457 -687.517,581.54 -1666.0376,669.067 -2445.8499,218.776 -779.8122,-450.291 -1193.1582,-1341.531 -1033.1743,-2227.688 159.9841,-886.1576 858.8815,-1576.5966 1746.5019,-1725.3948 0.1237,-75.0972 6.1356,-150.4404 17.5954,-225.1647 -735.4054,163.9986 -1492.2314,-168.3803 -1869.0018,-820.9416 -376.7704,-652.5614 -286.2322,-1474.1844 223.906,-2028.708 -70.0178,-27.0622 -138.2738,-59.5252 -203.6426,-96.7536 -572.987,694.477 -1520.3904,954.4599 -2367.7974,649.8773 C -11853.388,6247.1071 -12418.5,5443.4829 -12418.5,4543 c 0,-900.4828 565.112,-1704.1071 1412.519,-2008.6896 847.407,-304.5826 1794.8104,-44.5997 2367.7974,649.8774 65.3688,-37.2285 133.6248,-69.6915 203.6426,-97.2537 -510.1382,-555.0236 -600.6764,-1376.6466 -223.906,-2029.208 376.7704,-652.5613 1133.5964,-984.9402 1869.0018,-820.94171 -11.4598,-74.72435 -17.4717,-150.06755 -17.5954,-225.164735 C -7694.6796,-137.1816 -8393.5855,-827.6456 -8553.5515,-1713.825 c -159.9661,-886.1795 253.4219,-1777.4259 1033.272,-2227.6892 779.85,-450.2631 1758.3889,-362.6757 2445.8784,218.9267 687.4892,581.6024 936.0261,1532.0967 620.8994,2375.491 64.7252,37.9068 126.9223,80.7631 185.9567,128.3231 225.8057,-718.5351 892.0556,-1207.7266 1645.545,-1207.7266 753.4894,0 1419.7393,489.1915 1645.10348,1207.6797 58.59733,-47.6011 120.79856,-90.4516 185.46275,-128.3141 -315.19123,-843.3564 -66.65433,-1793.8507 620.83487,-2375.4531 687.48952,-581.6024 1666.0284,-669.1898 2445.8784,-218.9267 779.8501,450.2633 1193.2381,1341.5097 1033.272,2227.6892 -159.966,886.1794 -858.8719,1576.6434 -1746.5109,1725.444655 -0.1237,75.097185 -6.1356,150.440385 -17.5955,225.164735 z"
         transform="matrix(0,-0.16,-0.16,0,2315.4933,1775.2267)"
         style="fill:#000000"
         sodipodi:nodetypes="csccsssccsccsssccsccsssccsccsssccsccsssccsccssscc" />
      <path
         id="p7"
         d="m 1433.0367,-125.25141 c 52.6536,602.42399 -277.082,1173.45841 -825.1559,1429.00101 -548.07391,255.5426 -1197.45184,141.0256 -1625.1132,-286.4308 300.483,300.7457 431.6767,731.2268 349.61278,1148.0299 827.98278,19.4537 1541.90902,587.8857 1746.73512,1390.6417 204.826,802.7559 -149.4799,1643.751 -866.99343,2057.9312 -717.51344,414.1801 -1622.97147,300.3758 -2215.67297,-278.4814 -592.7015,-578.8572 -727.8706,-1481.3731 -330.3664,-2208.1251 -401.7954,-137.3677 -709.0355,-466.2673 -818.8256,-877.2155 156.7312,583.8194 -68.8397,1203.4576 -564.2302,1550.2944 -495.3904,346.8368 -1154.8097,346.8051 -1650.1668,-0.079 -495.3572,-346.8843 -720.8688,-966.5442 -564.5994,-1550.2819 -110.3079,411.0148 -417.548,739.9144 -819.3009,877.3599 397.477,726.8678 262.2213,1629.3707 -330.5357,2208.1711 -592.7571,578.8004 -1498.2259,692.518 -2215.6997,278.2689 -717.4734,-414.2489 -1071.6994,-1255.278 -866.7964,-2058.0143 204.9033,-802.7363 918.8841,-1371.0998 1746.7802,-1390.472 -82.1608,-416.8435 49.0682,-847.3668 349.5674,-1148.0711 -427.7165,427.5116 -1077.1171,542.022 -1625.1981,286.4547 -548.0805,-255.5672 -877.7995,-826.63584 -825.1065,-1429.0732 52.694,-602.4374 476.547,-1107.5932 1061.0622,-1263.8963 -410.2374,110.2741 -848.6992,8.6741 -1168.8292,-270.7587 -430.915,707.4528 -1280.136,1041.6212 -2077.795,817.7061 -797.659,-223.915 -1348.909,-951.2166 -1348.909,-1779.7081 0,-828.4915 551.25,-1555.7931 1348.909,-1779.7081 797.659,-223.9151 1646.88,110.2533 2077.795,817.7062 320.13,-279.4329 758.5918,-381.0329 1168.8292,-271.2588 -584.5152,-156.8031 -1008.3682,-661.9589 -1061.0622,-1264.3963 -52.693,-602.4374 277.026,-1173.506 825.1065,-1429.0732 548.081,-255.5673 1197.4816,-141.0569 1625.1981,286.4546 -300.4992,-300.7044 -431.7282,-731.2277 -349.5674,-1148.0712 -827.8961,-19.3722 -1541.8769,-587.7357 -1746.7802,-1390.472 -204.903,-802.7363 149.323,-1643.7653 866.7964,-2058.0143 717.4738,-414.249 1622.9426,-300.532 2215.6997,278.269 592.757,578.8 728.0127,1481.3032 330.5936,2208.1909 401.7976,137.5038 709.0061,466.4328 819.2588,877.3991 -156.2896,-583.8131 69.2392,-1203.4892 564.6213,-1550.3673 495.382,-346.8781 1154.8224,-346.8781 1650.2044,0 495.3821,346.8781 720.9109,966.5542 564.1371,1550.3082 109.8079,-411.0148 417.048,-739.9144 818.8434,-877.2821 -397.5121,-726.7665 -262.3292,-1629.3018 330.3981,-2208.1558 592.7273,-578.855 1498.2101,-692.629 2215.71805,-278.406 717.50795,414.222 1071.77165,1255.2581 866.88375,2058.0154 -204.8879,802.7572 -918.87819,1371.1422 -1746.77911,1390.575 82.12441,416.8688 -49.11049,847.3374 -349.57909,1148.0111 427.71646,-427.5115 1077.11709,-542.0219 1625.19809,-286.4546 548.08091,255.5672 877.79981,826.6358 825.10621,1429.0732 -52.6935,602.4374 -476.54658,1107.5932 -1061.06186,1263.8963 410.23738,-110.2741 848.69926,-8.6741 1168.82936,270.7587 430.9154,-707.4528 1280.1358,-1041.6212 2077.795,-817.7061 797.6592,223.915 1348.909,951.2166 1348.909,1779.7081 0,828.4915 -551.2498,1555.7931 -1348.909,1779.7081 -797.6592,223.9151 -1646.8796,-110.2533 -2077.795,-817.7061 -320.1301,279.4328 -758.59198,381.0328 -1168.76276,271.2765 584.55067,156.8727 1008.34976,662.04608 1061.00326,1264.47009 z"
         transform="matrix(0,-0.16,-0.16,0,1169.0933,1468.0267)"
         style="fill:#ffffff"
         sodipodi:nodetypes="ssccsssccssccsssccssccsssccssccsssccssccsssccssccsssccs" />
      <path
         id="p6"
         d="m 702.02667,-235.58191 c 95.20996,283.7228 10.27899,596.86359 -215.45576,793.51782 410.24453,-163.6317 879.39409,-35.54218 1149.79179,313.9013 270.3978,349.44349 276.6455,835.72439 15.0016,1191.69969 757.3928,-206.3141 1550.2967,181.9974 1852.1059,906.8914 301.8091,724.8941 18.7639,1561.1762 -661.2635,1953.7612 -680.0273,392.585 -1545.7804,219.5129 -2022.6126,-404.339 C 342.762,3895.9987 402.9825,3015.1719 960.66345,2462.3058 521.8353,2510.7853 103.81952,2262.2476 -63.62158,1853.3599 -231.0626,1444.4721 -107.43176,974.12798 239.6573,700.49679 -43.27266,797.52539 -356.95566,714.4942 -555.06458,490.14648 -753.17346,265.7988 -796.75055,-55.74787 -665.97711,-324.97682 c -197.8075,-42.55437 -362.01049,-178.62151 -439.88149,-365.06816 -16.5626,4.31698 -33.5353,8.86428 -50.5265,13.49141 25.2898,200.48881 -48.8871,400.42555 -198.5961,536.17872 207.0444,140.06815 329.7543,374.60852 326.415,624.27829 -3.3394,249.66977 -132.2783,480.8443 -342.8845,614.61556 524.38771,192.4669 835.0075,733.4616 737.1177,1283.4388 -97.8898,549.9772 -576.1013,950.5687 -1134.7223,950.542 -558.6209,-0.027 -1036.7941,-400.6642 -1134.6311,-950.6508 -97.837,-549.9866 212.8346,-1090.9515 737.189,-1283.3491 -210.6687,-133.75893 -339.6093,-364.94942 -342.9369,-614.63195 -3.3275,-249.68254 119.4061,-484.22714 326.4449,-624.26263 -149.754,-135.74735 -223.9297,-335.71049 -198.6218,-536.18826 -16.9949,-4.59776 -33.9676,-9.14506 -51.0302,-13.46204 -78.371,186.44665 -242.574,322.51379 -439.8659,365.10007 131.2575,269.26183 87.6595,590.78948 -110.4516,815.11801 -198.1111,224.32849 -511.7807,307.34814 -795.1611,210.35311 346.5862,273.68295 470.1776,744.01409 302.7236,1152.87759 -167.4541,408.8634 -585.4564,657.3796 -1024.2139,608.9548 557.6709,552.9622 617.8164,1433.7749 140.948,2057.5812 -476.8685,623.8062 -1342.6132,796.8227 -2022.6093,404.2122 -679.9962,-392.6104 -963.0053,-1228.8846 -661.1842,-1953.7582 301.821,-724.8737 1094.7124,-1113.1672 1852.0915,-906.8569 -261.6439,-355.9753 -255.3962,-842.2562 15.0016,-1191.69969 270.3977,-349.44348 739.5473,-477.533 1150.2918,-313.9013 -225.2445,-196.66272 -310.1721,-509.821 -214.9445,-793.55146 95.2277,-283.73046 351.8862,-482.24315 650.4287,-503.32772 -62.0584,-192.30445 -26.3216,-402.56663 95.779,-563.78903 -12.4124,-12.6785 -24.7815,-25.0476 -37.46,-37.46 -161.2224,122.1006 -371.4846,157.8374 -563.289,96.279 -17.1317,249.58298 -158.8936,473.14114 -376.7927,595.09372 -217.8991,121.95251 -482.5864,125.87347 -704.5224,10.32514 94.7733,550.3399 -218.4108,1089.87011 -743.6522,1280.10824 -525.2413,190.2381 -1111.2885,-23.5978 -1390.5887,-507.39572 -279.3001,-483.79784 -171.4247,-1098.24066 255.9701,-1457.96658 427.3946,-359.726 1051.2337,-361.1465 1480.7953,-3.2444 11.2791,-249.3472 147.0329,-476.6039 361.6046,-604.3201 214.5717,-127.7162 479.0605,-138.6896 703.2195,-29.6641 42.0544,-197.8075 178.1215,-362.0105 364.5682,-439.8815 -4.317,-16.5626 -8.8643,-33.5353 -13.4621,-50.5302 -200.4777,25.3079 -400.4409,-48.8679 -535.6882,-198.6218 -167.2615,248.1572 -467.5216,371.1821 -760.8649,311.7791 -293.3434,-59.4028 -522.0847,-289.552 -579.7683,-583.2055 -63.6958,437.2713 -409.197,779.4922 -847.0064,838.9324 -437.8093,59.4403 -862.047,-178.2751 -1039.7189,-582.6992 -200.2034,759.2169 -932.9272,1251.7595 -1711.6116,1150.7117 C -10410.76,-1615.5398 -10993.5,-2278.7866 -10993.5,-3064 c 0,-785.2134 582.74,-1448.4602 1361.4246,-1549.5079 778.6844,-101.0478 1511.4082,391.4948 1711.6116,1150.7117 177.6719,-404.4241 601.9096,-642.1395 1039.7189,-582.6992 437.8094,59.4402 783.3106,401.6611 847.0064,838.9324 57.6836,-293.6536 286.4249,-523.8027 579.7683,-583.2055 293.3433,-59.4029 593.6034,63.6219 760.8649,311.7791 135.2473,-149.7539 335.2105,-223.9297 535.6882,-198.6218 4.5978,-16.9949 9.1451,-33.9676 13.4621,-51.0302 -186.4467,-78.371 -322.5138,-242.574 -364.5682,-440.3815 -224.159,109.0255 -488.6478,98.0521 -703.2195,-29.6641 -214.5717,-127.7162 -350.3255,-354.9729 -361.6046,-604.3201 -429.5697,357.9088 -1053.4224,356.4807 -1480.8165,-3.2621 -427.3941,-359.7429 -535.2499,-974.2032 -255.9213,-1457.9967 279.3286,-483.7936 865.4016,-697.5991 1390.6391,-507.3197 525.2374,190.2795 838.3833,729.8479 743.5648,1280.1345 221.9454,-115.6028 486.6327,-111.6818 704.5318,10.2707 217.8991,121.9526 359.661,345.5107 376.7927,595.0937 191.8044,-61.5584 402.0666,-25.8216 563.289,95.779 12.6785,-12.9124 25.0476,-25.2815 37.46,-37.46 -122.1006,-160.7224 -157.8374,-370.9846 -95.779,-563.289 -298.5425,-21.0846 -555.201,-219.5973 -650.4287,-503.3278 -95.2276,-283.7304 -10.3,-596.8887 214.9445,-793.5515 -410.7445,163.6316 -879.8941,35.5421 -1150.2918,-313.9014 -270.3978,-349.4435 -276.6455,-835.7244 -15.0016,-1191.6997 -757.3928,206.3141 -1550.2967,-181.9974 -1852.1059,-906.8914 -301.8091,-724.8941 -18.7639,-1561.1765 661.2635,-1953.7615 680.0273,-392.585 1545.7804,-219.513 2022.6126,404.339 476.8321,623.852 416.6116,1504.6789 -141.0694,2057.545 438.8282,-48.4795 856.844,200.0582 1024.2851,608.946 167.441,408.8877 43.8102,879.2318 -302.7789,1152.8631 283.43,-97.0285 597.113,-13.9973 795.2219,210.3504 198.1089,224.3477 241.6859,545.8944 110.4414,815.1295 197.3324,42.5795 361.5224,178.6624 439.8641,364.5893 17.0511,-4.8443 34.0238,-9.3916 51.0187,-13.4894 -25.3079,-199.9777 48.8678,-399.9409 198.6218,-535.6882 -207.0388,-140.0355 -329.7724,-374.5801 -326.4449,-624.2627 3.3276,-249.6825 132.2682,-480.873 342.9369,-614.632 -524.3641,-192.4012 -835.0362,-733.3819 -737.1841,-1283.3764 97.852,-549.9945 576.0501,-950.6236 1134.6815,-950.6236 558.6313,0 1036.8295,400.6291 1134.6815,950.6236 97.8521,549.9945 -212.81999,1090.9752 -737.1541,1283.3955 210.6751,133.7915 339.5919,364.9783 342.9073,614.6484 3.3155,249.6702 -119.4169,484.1987 -326.4234,624.247 149.7475,135.7676 223.9051,335.7114 198.7144,535.6977 17.109,4.1288 34.0812,8.6778 50.5295,13.4647 77.7572,-185.9786 241.96019,-322.0457 439.76769,-364.6001 -130.77344,-269.2289 -87.19635,-590.7756 110.91253,-815.1233 198.10892,-224.3477 511.79192,-307.3789 794.72188,-210.3504 -347.08906,-273.6313 -470.7199,-743.9754 -303.27888,-1152.8631 167.4411,-408.8878 585.45688,-657.4255 1024.28503,-608.946 -557.68095,-552.8661 -617.90145,-1433.693 -141.06935,-2057.545 476.8322,-623.852 1342.5853,-796.924 2022.6126,-404.339 680.0274,392.585 963.0726,1228.8674 661.2635,1953.7615 -301.8092,724.894 -1094.7131,1113.2055 -1852.0779,906.9297 261.6275,356.0244 255.3451,842.2823 -15.0586,1191.6989 -270.4038,349.4167 -739.5346,477.489 -1149.73605,313.8872 225.74268,196.6993 310.64362,509.8482 215.40638,793.5619 -95.23718,283.7137 -351.8877,482.2104 -650.908225,503.3222 61.542685,192.3187 25.799885,402.5551 -95.70364,563.3436 12.995635,12.2624 25.363535,24.6326 37.458195,37.4618 160.63977,-121.6851 370.90192,-157.4219 563.20637,-95.8635 17.63169,-249.583 159.39359,-473.1411 377.2927,-595.0937 217.89907,-121.9525 482.58637,-125.8735 704.03177,-10.2707 -95.3185,-550.2866 217.8274,-1089.855 743.0648,-1280.1345 525.2375,-190.2794 1111.3105,23.5261 1390.6391,507.3197 279.3286,483.7935 171.4728,1098.2537 -255.9213,1457.9967 -427.3941,359.7428 -1051.2468,361.1709 -1480.3165,3.2621 -10.7791,249.3472 -146.5329,476.6039 -361.1046,604.3201 -214.5717,127.7162 -479.0605,138.6896 -703.71953,29.6641 -42.55436,197.8075 -178.6215,362.0105 -364.53645,439.9954 4.84728,16.6768 9.39318,33.6499 13.45974,50.5308 199.94837,-25.4224 399.91154,48.7534 535.65884,198.5073 167.7615,-248.1572 468.0216,-371.1821 761.3649,-311.7791 293.3434,59.4028 522.0847,289.5519 579.2683,583.2055 63.1958,-437.2713 408.697,-779.4922 846.5064,-838.9324 437.8093,-59.4403 862.047,178.2751 1039.719,582.6992 200.2035,-759.2169 932.9273,-1251.7595 1711.6117,-1150.7117 778.6845,101.0477 1361.4246,764.2945 1361.4246,1549.5079 0,785.2134 -582.7401,1448.4602 -1361.4246,1549.5079 -778.6844,101.0478 -1511.4082,-391.4948 -1711.6117,-1150.7117 -177.672,404.4241 -601.9097,642.1395 -1039.719,582.6992 -437.8094,-59.4402 -783.3106,-401.6611 -846.5064,-838.9324 -57.1836,293.6535 -285.9249,523.8027 -579.2683,583.2055 -293.3433,59.4029 -593.6034,-63.6219 -761.3649,-311.7791 -135.7473,149.7539 -335.71047,223.9297 -535.68824,198.6218 -4.09776,16.9949 -8.64506,33.9676 -13.43475,51.0416 185.96645,78.4004 322.01787,242.6164 364.54706,440.399 224.65283,-109.0544 489.14163,-98.081 703.71333,29.6352 214.5717,127.7162 350.3255,354.9729 361.1046,604.3201 429.0697,-357.9088 1052.9224,-356.4807 1480.3165,3.2621 427.3941,359.74295 535.2499,974.20323 255.9213,1457.99673 C 3491.7565,618.0595 2905.6835,831.865 2380.446,641.5856 1855.2086,451.30609 1542.0627,-88.26227 1637.3812,-638.54889 c -221.4454,115.60278 -486.1327,111.68182 -704.03177,-10.27069 -217.89911,-121.95258 -359.66101,-345.51074 -377.2927,-595.09372 -192.30445,61.5584 -402.5666,25.8216 -563.28902,-96.279 -12.17851,12.4124 -24.54761,24.7815 -37.442095,37.4836 121.590465,161.241 157.313115,371.48087 95.79651,563.7679 299.063025,21.11481 555.694525,219.63611 650.904545,503.35889 z"
         style="fill:#000000"
         transform="matrix(0,-0.16,-0.16,0,1098.3733,1911.7067)"
         sodipodi:nodetypes="scscssscscsccccscssscsccccscscssscscsccccscssscsccccscscssscscsccccscssscsccccscscssscscsccccscssscsccccscscssscscsccccscssscsccccscscssscscsccccscssscsccccs" />
      <g
         id="g5">
        <circle
           id="c5k"
           cx="1588.6133"
           cy="3420.6667"
           r="204.23999" />
        <circle
           id="c5i"
           cx="2650.3733"
           cy="2807.7068"
           r="204.23999" />
        <circle
           id="c5g"
           cx="2650.3733"
           cy="1581.9468"
           r="204.23999" />
        <circle
           id="c5e"
           cx="1588.7733"
           cy="968.98669"
           r="204.23999" />
        <circle
           id="c5c"
           cx="527.01331"
           cy="1581.9467"
           r="204.23999" />
        <circle
           id="c5a"
           cx="527.01331"
           cy="2807.7068"
           r="204.23999" />
      </g>
      <g
         id="g4">
        <circle
           id="c4l"
           cx="1169.0933"
           cy="2921.6267"
           r="138.63991" />
        <circle
           id="c4j"
           cx="2008.2933"
           cy="2921.6267"
           r="138.63991" />
        <circle
           id="c4h"
           cx="2427.8135"
           cy="2194.7466"
           r="138.63991" />
        <circle
           id="c4f"
           cx="2008.2933"
           cy="1468.0266"
           r="138.63991" />
        <circle
           id="c4d"
           cx="1169.0934"
           cy="1468.0266"
           r="138.63991" />
        <circle
           id="c4b"
           cx="749.57324"
           cy="2194.7466"
           r="138.63991" />
      </g>
      <g
         id="g3">
        <circle
           id="c3k"
           cx="1588.6133"
           cy="3033.9468"
           r="112.71996" />
        <circle
           id="c3i"
           cx="2315.4934"
           cy="2614.4268"
           r="112.71996" />
        <circle
           id="c3g"
           cx="2315.4934"
           cy="1775.2267"
           r="112.71996" />
        <circle
           id="c3e"
           cx="1588.7733"
           cy="1355.7067"
           r="112.71996" />
        <circle
           id="c3c"
           cx="861.89337"
           cy="1775.2267"
           r="112.71996" />
        <circle
           id="c3a"
           cx="861.89337"
           cy="2614.4268"
           r="112.71996" />
      </g>
      <g
         id="g2">
        <circle
           id="c2l"
           cx="1305.5732"
           cy="2684.9866"
           r="72.720016" />
        <circle
           id="c2k"
           cx="1588.6133"
           cy="2760.8267"
           r="72.720016" />
        <circle
           id="c2j"
           cx="1871.8132"
           cy="2684.9868"
           r="72.720016" />
        <circle
           id="c2i"
           cx="2079.0132"
           cy="2477.7866"
           r="72.720016" />
        <circle
           id="c2h"
           cx="2154.8533"
           cy="2194.7468"
           r="72.720016" />
        <circle
           id="c2g"
           cx="2079.0132"
           cy="1911.7067"
           r="72.720016" />
        <circle
           id="c2f"
           cx="1871.8134"
           cy="1704.5067"
           r="72.720016" />
        <circle
           id="c2e"
           cx="1588.7733"
           cy="1628.6667"
           r="72.720016" />
        <circle
           id="c2d"
           cx="1305.5732"
           cy="1704.5067"
           r="72.720016" />
        <circle
           id="c2c"
           cx="1098.3733"
           cy="1911.7067"
           r="72.720016" />
        <circle
           id="c2b"
           cx="1022.5333"
           cy="2194.7466"
           r="72.720016" />
        <circle
           id="c2a"
           cx="1098.3733"
           cy="2477.7866"
           r="72.720016" />
      </g>
      <g
         id="g1">
        <circle
           id="c1l"
           cx="1391.4933"
           cy="2536.5068"
           r="53.040012" />
        <circle
           id="c1k"
           cx="1588.6133"
           cy="2589.5466"
           r="53.040012" />
        <circle
           id="c1j"
           cx="1785.8933"
           cy="2536.5066"
           r="53.040012" />
        <circle
           id="c1i"
           cx="1930.3733"
           cy="2392.0266"
           r="53.040012" />
        <circle
           id="c1h"
           cx="1983.1733"
           cy="2194.7466"
           r="53.040012" />
        <circle
           id="c1g"
           cx="1930.3733"
           cy="1997.6267"
           r="53.040012" />
        <circle
           id="c1f"
           cx="1785.8933"
           cy="1853.1467"
           r="53.040012" />
        <circle
           id="c1e"
           cx="1588.7733"
           cy="1800.3467"
           r="53.040012" />
        <circle
           id="c1d"
           cx="1391.4933"
           cy="1853.1467"
           r="53.040012" />
        <circle
           id="c1c"
           cx="1247.0133"
           cy="1997.6267"
           r="53.040012" />
        <circle
           id="c1b"
           cx="1194.2133"
           cy="2194.7466"
           r="53.040012" />
        <circle
           id="c1a"
           cx="1247.0133"
           cy="2392.0266"
           r="53.040012" />
      </g>
      <!-- <circle
         id="c0"
         cx="1588.6932"
         cy="2194.8267"
         r="203.81184" /> -->
    </g>
  </g>
  <metadata
     id="metadata6595">
    <rdf:RDF>
      <cc:Work
         rdf:about="">
        <cc:license
           rdf:resource="http://creativecommons.org/publicdomain/zero/1.0/" />
      </cc:Work>
      <cc:License
         rdf:about="http://creativecommons.org/publicdomain/zero/1.0/">
        <cc:permits
           rdf:resource="http://creativecommons.org/ns#Reproduction" />
        <cc:permits
           rdf:resource="http://creativecommons.org/ns#Distribution" />
        <cc:permits
           rdf:resource="http://creativecommons.org/ns#DerivativeWorks" />
      </cc:License>
    </rdf:RDF>
  </metadata>
</svg>
